<svg xmlns="http://www.w3.org/2000/svg" width="1120" height="420" viewBox="0 0 1120 420" role="img" aria-labelledby="title desc">
  <title id="title">AI Workflow Evaluator architecture</title>
  <desc id="desc">Workflow logs, expected facts, source snippets, and telemetry flow into deterministic scorers and produce ship, review, or block decisions.</desc>
  <rect width="1120" height="420" fill="#0d0f0c"/>
  <defs>
    <marker id="arrow" markerWidth="10" markerHeight="10" refX="8" refY="3" orient="auto" markerUnits="strokeWidth">
      <path d="M0,0 L0,6 L9,3 z" fill="#d9ff8c"/>
    </marker>
  </defs>
  <g font-family="Avenir Next, Segoe UI, sans-serif">
    <rect x="50" y="54" width="220" height="74" fill="#1b1f18" stroke="#30352c" stroke-width="2"/>
    <rect x="50" y="172" width="220" height="74" fill="#1b1f18" stroke="#30352c" stroke-width="2"/>
    <rect x="50" y="290" width="220" height="74" fill="#1b1f18" stroke="#30352c" stroke-width="2"/>
    <text x="82" y="100" font-size="20" font-weight="800" fill="#fffaf0">Output logs</text>
    <text x="82" y="218" font-size="20" font-weight="800" fill="#fffaf0">Facts + sources</text>
    <text x="82" y="336" font-size="20" font-weight="800" fill="#fffaf0">Cost + latency</text>
    <rect x="424" y="128" width="272" height="164" fill="#20251d" stroke="#d9ff8c" stroke-width="2"/>
    <text x="474" y="198" font-size="26" font-weight="900" fill="#d9ff8c">Deterministic</text>
    <text x="500" y="236" font-size="26" font-weight="900" fill="#d9ff8c">Scorers</text>
    <rect x="850" y="54" width="220" height="74" fill="#14251b" stroke="#66e19b" stroke-width="2"/>
    <rect x="850" y="172" width="220" height="74" fill="#282215" stroke="#f2b84b" stroke-width="2"/>
    <rect x="850" y="290" width="220" height="74" fill="#2a1916" stroke="#ff6b5a" stroke-width="2"/>
    <text x="926" y="100" font-size="20" font-weight="900" fill="#fffaf0">Ship</text>
    <text x="914" y="218" font-size="20" font-weight="900" fill="#fffaf0">Review</text>
    <text x="916" y="336" font-size="20" font-weight="900" fill="#fffaf0">Block</text>
    <line x1="270" y1="91" x2="414" y2="174" stroke="#d9ff8c" stroke-width="3" marker-end="url(#arrow)"/>
    <line x1="270" y1="209" x2="414" y2="209" stroke="#d9ff8c" stroke-width="3" marker-end="url(#arrow)"/>
    <line x1="270" y1="327" x2="414" y2="246" stroke="#d9ff8c" stroke-width="3" marker-end="url(#arrow)"/>
    <line x1="696" y1="174" x2="840" y2="91" stroke="#d9ff8c" stroke-width="3" marker-end="url(#arrow)"/>
    <line x1="696" y1="209" x2="840" y2="209" stroke="#d9ff8c" stroke-width="3" marker-end="url(#arrow)"/>
    <line x1="696" y1="246" x2="840" y2="327" stroke="#d9ff8c" stroke-width="3" marker-end="url(#arrow)"/>
  </g>
</svg>
